<svg xmlns="http://www.w3.org/2000/svg" xmlns:xlink="http://www.w3.org/1999/xlink" viewBox="0,0,256,256" width="65px" height="65px" fill-rule="nonzero"><g fill="#000000" fill-rule="nonzero" stroke="none" stroke-width="1" stroke-linecap="butt" stroke-linejoin="miter" stroke-miterlimit="10" stroke-dasharray="" stroke-dashoffset="0" font-family="none" font-weight="none" font-size="none" text-anchor="none" style="mix-blend-mode: normal"><path d="M0,256v-256h256v256z" id="bgRectangle"></path></g><g fill="#ffffff" fill-rule="evenodd" stroke="none" stroke-width="1" stroke-linecap="butt" stroke-linejoin="miter" stroke-miterlimit="10" stroke-dasharray="" stroke-dashoffset="0" font-family="none" font-weight="none" font-size="none" text-anchor="none" style="mix-blend-mode: normal"><g transform="scale(3.55556,3.55556)"><path d="M36,13c13.25,0 24,11.369 24,23.5c0,13 -9.5,23 -21,24.25v-17.75h4l2,-5.029l-6,0.029v-4.73c0,-1.254 1.016,-2.27 2.27,-2.27c0.902,0 1.73,0 1.73,0v-4h-4.255c-1.524,0 -2.985,0.605 -4.062,1.683c-1.078,1.077 -1.683,2.538 -1.683,4.062c0,2.653 0,5.226 0,5.226h-4v5.029h4v17.75c-11.5,-1.25 -21,-11 -21,-24.25c0,-12.131 10.5,-23.5 24,-23.5z"></path></g></g></svg>